<?xml version="1.0" standalone="no"?>
  <!DOCTYPE svg PUBLIC "-//W3C//DTD SVG 1.1//EN" "http://www.w3.org/Graphics/SVG/1.1/DTD/svg11.dtd" >
  <svg>
  <metadata>
  Created by font-carrier
  </metadata>
  <defs>
  <font id="iconfont" horiz-adv-x="1024" vert-adv-y="1024" >
    <font-face
      
      font-family="iconfont"
      
      font-weight="400"
      
      font-stretch="normal"
      
      units-per-em="1024"
      
      ascent="812"
      
      descent="-212"
      
    />
      <missing-glyph />

      
      <glyph glyph-name="x" unicode="&#x78;" horiz-adv-x="100"
        d="M20 20 L50 20 L50 -20 Z" />
      

      
      <glyph glyph-name="chengjizhaxun" unicode="&#xE00A;" d="M688 548C688 552.4 684.4 556 680 556H296C291.6 556 288 552.4 288 548V500C288 495.6 291.6 492 296 492H680C684.4 492 688 495.6 688 500V548ZM680 412H296C291.6 412 288 408.4 288 404V356C288 351.6 291.6 348 296 348H680C684.4 348 688 351.6 688 356V404C688 408.4 684.4 412 680 412ZM480 268H296C291.6 268 288 264.4 288 260V212C288 207.6 291.6 204 296 204H480C484.4 204 488 207.6 488 212V260C488 264.4 484.4 268 480 268ZM432-40H208V664H768V320C768 315.6 771.6 312 776 312H832C836.4 312 840 315.6 840 320V704C840 721.7 825.7 736 808 736H168C150.3 736 136 721.7 136 704V-80C136-97.7 150.3-112 168-112H432C436.4-112 440-108.4 440-104V-48C440-43.6 436.4-40 432-40ZM788.8 34.4C817.8 60.7 836 98.7 836 141 836 220.5 771.5 285 692 285S548 220.5 548 141C548 98.7 566.2 60.7 595.2 34.4 538.2 1.9 499-58.3 496-127.7 495.8-132.2 499.5-136 504-136H552.1C556.3-136 559.8-132.7 560.1-128.4 564-59.2 621.7-4 692-4S820-59.2 823.9-128.4C824.1-132.6 827.6-136 831.9-136H880C884.6-136 888.2-132.2 888-127.7 885.1-58.2 845.8 1.9 788.8 34.4ZM692 221C736.2 221 772 185.2 772 141S736.2 61 692 61 612 96.8 612 141 647.8 221 692 221Z"  horiz-adv-x="1024" vert-adv-y="1024"  />

      
      <glyph glyph-name="kaifajihuai" unicode="&#xE00B;" d="M876.6 572.5C876.1 573.4 875.4 574.3 874.6 575 869.6 580 861.5 580 856.5 575L684.2 402.7 616.3 470.6 788.7 643C789.5 643.8 790.1 644.6 790.7 645.5 794.3 651.6 792.3 659.4 786.2 663 688 721 559.4 707.7 474.9 623.3 407.9 556.3 385.7 461.3 408.4 375.9L115.4 82.9C112.4 79.9 112.6 75 115.7 71.9L285.4-97.8C288.5-100.9 293.5-101.1 296.4-98.1L589.3 194.8C674.8 172 769.8 194.1 836.9 261.2 921.3 345.7 934.6 474.3 876.6 572.5ZM786 312.2C727.9 254.1 640.7 242.9 571.4 278.6L562.6 269.8 562.5 269.9 288.5-4.2 209.3 75 439.4 305.1S439.4 305 439.5 305L492.3 357.8C456.6 427.1 467.8 514.3 525.9 572.4 565.1 611.6 618 629.7 669.9 625.9L537 493.1C524.5 480.6 524.5 460.3 537 447.8L661.5 323.3C674 310.8 694.3 310.8 706.8 323.3L839.6 456.1C843.3 404.3 825.2 351.3 786 312.2Z"  horiz-adv-x="1024" vert-adv-y="1024"  />

      
      <glyph glyph-name="kaoshianbai" unicode="&#xE00C;" d="M880 628H712V692C712 696.4 708.4 700 704 700H648C643.6 700 640 696.4 640 692V628H384V692C384 696.4 380.4 700 376 700H320C315.6 700 312 696.4 312 692V628H144C126.3 628 112 613.7 112 596V-68C112-85.7 126.3-100 144-100H880C897.7-100 912-85.7 912-68V596C912 613.7 897.7 628 880 628ZM840-28H184V352H840V-28ZM184 420V556H312V508C312 503.6 315.6 500 320 500H376C380.4 500 384 503.6 384 508V556H640V508C640 503.6 643.6 500 648 500H704C708.4 500 712 503.6 712 508V556H840V420H184Z"  horiz-adv-x="1024" vert-adv-y="1024"  />

      
      <glyph glyph-name="delu" unicode="&#xE00D;" d="M858.5 48.4C839.6 93.2 812.4 133.4 777.9 167.9 743.4 202.4 703.2 229.5 658.4 248.5 658 248.7 657.6 248.8 657.2 249 719.5 294 760 367.3 760 450 760 587 649 698 512 698S264 587 264 450C264 367.3 304.5 294 366.8 248.9 366.4 248.7 366 248.6 365.6 248.4 320.8 229.5 280.6 202.4 246.1 167.8 211.6 133.3 184.5 93.1 165.5 48.3 146.9 4.5 137-42 136-89.8 135.9-94.3 139.5-98 144-98H204C208.4-98 211.9-94.5 212-90.2 214-13 245 59.3 299.8 114.1 356.5 170.8 431.8 202 512 202S667.5 170.8 724.2 114.1C779 59.3 810-13 812-90.2 812.1-94.6 815.6-98 820-98H880C884.5-98 888.1-94.3 888-89.8 887-42 877.1 4.5 858.5 48.4ZM512 278C466.1 278 422.9 295.9 390.4 328.4S340 404.1 340 450C340 495.9 357.9 539.1 390.4 571.6S466.1 622 512 622 601.1 604.1 633.6 571.6 684 495.9 684 450C684 404.1 666.1 360.9 633.6 328.4S557.9 278 512 278Z"  horiz-adv-x="1024" vert-adv-y="1024"  />

      
      <glyph glyph-name="gongjiaozhaxun" unicode="&#xE00E;" d="M753.1675-136.1619H301.8628V-168.2473C301.8628-185.9345 287.4337-200.3326 269.5913-200.3326A32.1784 32.1784 0 0 0 237.3818-168.2473V-132.9348A160.7059 160.7059 0 0 0 108.4199 24.2958V634.0412C108.4199 722.6327 180.5964 794.4679 269.6533 794.4679H785.377C874.4029 794.4679 946.5794 722.6638 946.5794 634.0412V24.2958 24.3268A160.7059 160.7059 0 0 0 817.6485-132.9348V-168.2473C817.6485-185.9345 803.1884-200.3326 785.377-200.3326A32.1784 32.1784 0 0 0 753.1675-168.2473V-136.1619ZM882.1295 377.2965V634.0412A96.5042 96.5042 0 0 1 785.408 730.3282H269.6533A96.5042 96.5042 0 0 1 172.9319 634.0412V377.2965H882.1605ZM882.1295 313.1258H172.9008V24.2958A96.5042 96.5042 0 0 1 269.6223-71.9602H785.377A96.5042 96.5042 0 0 1 882.0984 24.2958V313.1258ZM43.9699 505.6688C61.7503 505.6688 76.2104 491.3018 76.2104 473.5835V345.2112C76.2104 327.5239 61.7503 313.1258 43.9389 313.1258A32.1784 32.1784 0 0 0 11.7295 345.2112V473.5835C11.7295 491.3018 26.1585 505.6688 43.9699 505.6688ZM1011.0604 505.6688C1028.8718 505.6688 1043.3319 491.3018 1043.3319 473.5835V345.2112C1043.3319 327.5239 1028.8718 313.1258 1011.0604 313.1258A32.1784 32.1784 0 0 0 978.8199 345.2112V473.5835C978.8199 491.3018 993.28 505.6688 1011.0914 505.6688ZM269.6533 120.5828A64.3258 64.3258 0 0 0 205.1724 184.7535C205.1724 220.2211 234.0305 248.9552 269.6533 248.9552 305.2451 248.9552 334.1343 220.2211 334.1343 184.7535 334.1343 149.3168 305.2761 120.5828 269.6533 120.5828ZM785.439 120.5828A64.3258 64.3258 0 0 0 720.9581 184.7535C720.9581 220.2211 749.8162 248.9552 785.439 248.9552 821.0618 248.9552 849.92 220.2211 849.92 184.7535 849.92 149.3168 821.0618 120.5828 785.439 120.5828Z"  horiz-adv-x="1055" vert-adv-y="1024"  />

      
      <glyph glyph-name="yigonghuodong" unicode="&#xE00F;" d="M923 528.4C909.6 559.5 890.4 587.3 866.1 611.2 841.8 635 813.6 653.6 782.1 666.7 749.6 680.2 715.2 687 679.7 687 630.4 687 582.3 673.5 540.5 648 530.5 641.9 521 635.2 512 627.9 503 635.2 493.5 641.9 483.5 648 441.7 673.5 393.6 687 344.3 687 308.8 687 274.4 680.2 241.9 666.7 210.5 653.7 182.2 635 157.9 611.2 133.5 587.3 114.4 559.5 101 528.4 87.1 496.1 80 461.8 80 426.5 80 393.2 86.8 358.5 100.3 323.2 111.6 293.7 127.8 263.1 148.5 232.2 181.3 183.3 226.4 132.3 282.4 80.6 375.2-5.1 467.1-64.3 471-66.7L494.7-81.9C505.2-88.6 518.7-88.6 529.2-81.9L552.9-66.7C556.8-64.2 648.6-5.1 741.5 80.6 797.5 132.3 842.6 183.3 875.4 232.2 896.1 263.1 912.4 293.7 923.6 323.2 937.1 358.5 943.9 393.2 943.9 426.5 944 461.8 936.9 496.1 923 528.4ZM512-2.8S156 225.3 156 426.5C156 528.4 240.3 611 344.3 611 417.4 611 480.8 570.2 512 510.6 543.2 570.2 606.6 611 679.7 611 783.7 611 868 528.4 868 426.5 868 225.3 512-2.8 512-2.8Z"  horiz-adv-x="1024" vert-adv-y="1024"  />

      
      <glyph glyph-name="xuefenzhaxun" unicode="&#xE010;" d="M688 500V548C688 552.4 684.4 556 680 556H296C291.6 556 288 552.4 288 548V500C288 495.6 291.6 492 296 492H680C684.4 492 688 495.6 688 500ZM296 412C291.6 412 288 408.4 288 404V356C288 351.6 291.6 348 296 348H480C484.4 348 488 351.6 488 356V404C488 408.4 484.4 412 480 412H296ZM440-40H208V664H768V320C768 315.6 771.6 312 776 312H832C836.4 312 840 315.6 840 320V704C840 721.7 825.7 736 808 736H168C150.3 736 136 721.7 136 704V-80C136-97.7 150.3-112 168-112H440C444.4-112 448-108.4 448-104V-48C448-43.6 444.4-40 440-40ZM885.7-91.5L792.4 1.8C814.7 31.3 828 68.1 828 108 828 205.2 749.2 284 652 284S476 205.2 476 108 554.8-68 652-68C687.8-68 721-57.3 748.8-39L843.5-133.7C845.1-135.3 847.1-136 849.1-136S853.2-135.2 854.7-133.7L885.7-102.7C888.8-99.6 888.8-94.6 885.7-91.5ZM652-4C590.1-4 540 46.1 540 108S590.1 220 652 220 764 169.9 764 108 713.9-4 652-4Z"  horiz-adv-x="1024" vert-adv-y="1024"  />

      
      <glyph glyph-name="jiaowantongzhi" unicode="&#xE011;" d="M880 700C876.2 700 872.3 699.3 868.4 697.7L292 466.1H128C119.2 466.1 112 458.7 112 449.5V150.5C112 141.3 119.2 133.9 128 133.9H229.7C226 122.3 224 110 224 97.5 224 31.6 277.8-22 344-22 399.4-22 446.1 15.6 459.9 66.4L868.5-97.8C872.4-99.3 876.3-100.1 880.1-100.1 897-100.1 912.1-85.9 912.1-66.9V666.8C912 685.8 897 700 880 700ZM344 49.7C317.5 49.7 296 71.1 296 97.5 296 108.7 299.9 119.4 307 127.9L391.9 93.8C389.9 69.2 369.2 49.7 344 49.7ZM840-8.7L318.8 200.7 305.9 205.9H184V394.1H305.9L318.8 399.3 840 608.7V-8.7Z"  horiz-adv-x="1024" vert-adv-y="1024"  />

      
      <glyph glyph-name="chengjizhaxun-1" unicode="&#xE012;" d="M688 548C688 552.4 684.4 556 680 556H296C291.6 556 288 552.4 288 548V500C288 495.6 291.6 492 296 492H680C684.4 492 688 495.6 688 500V548ZM680 412H296C291.6 412 288 408.4 288 404V356C288 351.6 291.6 348 296 348H680C684.4 348 688 351.6 688 356V404C688 408.4 684.4 412 680 412ZM480 268H296C291.6 268 288 264.4 288 260V212C288 207.6 291.6 204 296 204H480C484.4 204 488 207.6 488 212V260C488 264.4 484.4 268 480 268ZM432-40H208V664H768V320C768 315.6 771.6 312 776 312H832C836.4 312 840 315.6 840 320V704C840 721.7 825.7 736 808 736H168C150.3 736 136 721.7 136 704V-80C136-97.7 150.3-112 168-112H432C436.4-112 440-108.4 440-104V-48C440-43.6 436.4-40 432-40ZM788.8 34.4C817.8 60.7 836 98.7 836 141 836 220.5 771.5 285 692 285S548 220.5 548 141C548 98.7 566.2 60.7 595.2 34.4 538.2 1.9 499-58.3 496-127.7 495.8-132.2 499.5-136 504-136H552.1C556.3-136 559.8-132.7 560.1-128.4 564-59.2 621.7-4 692-4S820-59.2 823.9-128.4C824.1-132.6 827.6-136 831.9-136H880C884.6-136 888.2-132.2 888-127.7 885.1-58.2 845.8 1.9 788.8 34.4ZM692 221C736.2 221 772 185.2 772 141S736.2 61 692 61 612 96.8 612 141 647.8 221 692 221Z"  horiz-adv-x="1024" vert-adv-y="1024"  />

      
      <glyph glyph-name="jiaowantongzhi-1" unicode="&#xE013;" d="M880 700C876.2 700 872.3 699.3 868.4 697.7L292 466.1H128C119.2 466.1 112 458.7 112 449.5V150.5C112 141.3 119.2 133.9 128 133.9H229.7C226 122.3 224 110 224 97.5 224 31.6 277.8-22 344-22 399.4-22 446.1 15.6 459.9 66.4L868.5-97.8C872.4-99.3 876.3-100.1 880.1-100.1 897-100.1 912.1-85.9 912.1-66.9V666.8C912 685.8 897 700 880 700ZM344 49.7C317.5 49.7 296 71.1 296 97.5 296 108.7 299.9 119.4 307 127.9L391.9 93.8C389.9 69.2 369.2 49.7 344 49.7ZM840-8.7L318.8 200.7 305.9 205.9H184V394.1H305.9L318.8 399.3 840 608.7V-8.7Z"  horiz-adv-x="1024" vert-adv-y="1024"  />

      
      <glyph glyph-name="gongjiaozhaxun-1" unicode="&#xE014;" d="M753.1675-136.1619H301.8628V-168.2473C301.8628-185.9345 287.4337-200.3326 269.5913-200.3326A32.1784 32.1784 0 0 0 237.3818-168.2473V-132.9348A160.7059 160.7059 0 0 0 108.4199 24.2958V634.0412C108.4199 722.6327 180.5964 794.4679 269.6533 794.4679H785.377C874.4029 794.4679 946.5794 722.6638 946.5794 634.0412V24.2958 24.3268A160.7059 160.7059 0 0 0 817.6485-132.9348V-168.2473C817.6485-185.9345 803.1884-200.3326 785.377-200.3326A32.1784 32.1784 0 0 0 753.1675-168.2473V-136.1619ZM882.1295 377.2965V634.0412A96.5042 96.5042 0 0 1 785.408 730.3282H269.6533A96.5042 96.5042 0 0 1 172.9319 634.0412V377.2965H882.1605ZM882.1295 313.1258H172.9008V24.2958A96.5042 96.5042 0 0 1 269.6223-71.9602H785.377A96.5042 96.5042 0 0 1 882.0984 24.2958V313.1258ZM43.9699 505.6688C61.7503 505.6688 76.2104 491.3018 76.2104 473.5835V345.2112C76.2104 327.5239 61.7503 313.1258 43.9389 313.1258A32.1784 32.1784 0 0 0 11.7295 345.2112V473.5835C11.7295 491.3018 26.1585 505.6688 43.9699 505.6688ZM1011.0604 505.6688C1028.8718 505.6688 1043.3319 491.3018 1043.3319 473.5835V345.2112C1043.3319 327.5239 1028.8718 313.1258 1011.0604 313.1258A32.1784 32.1784 0 0 0 978.8199 345.2112V473.5835C978.8199 491.3018 993.28 505.6688 1011.0914 505.6688ZM269.6533 120.5828A64.3258 64.3258 0 0 0 205.1724 184.7535C205.1724 220.2211 234.0305 248.9552 269.6533 248.9552 305.2451 248.9552 334.1343 220.2211 334.1343 184.7535 334.1343 149.3168 305.2761 120.5828 269.6533 120.5828ZM785.439 120.5828A64.3258 64.3258 0 0 0 720.9581 184.7535C720.9581 220.2211 749.8162 248.9552 785.439 248.9552 821.0618 248.9552 849.92 220.2211 849.92 184.7535 849.92 149.3168 821.0618 120.5828 785.439 120.5828Z"  horiz-adv-x="1055" vert-adv-y="1024"  />

      
      <glyph glyph-name="kaoshianbai-1" unicode="&#xE015;" d="M880 628H712V692C712 696.4 708.4 700 704 700H648C643.6 700 640 696.4 640 692V628H384V692C384 696.4 380.4 700 376 700H320C315.6 700 312 696.4 312 692V628H144C126.3 628 112 613.7 112 596V-68C112-85.7 126.3-100 144-100H880C897.7-100 912-85.7 912-68V596C912 613.7 897.7 628 880 628ZM840-28H184V352H840V-28ZM184 420V556H312V508C312 503.6 315.6 500 320 500H376C380.4 500 384 503.6 384 508V556H640V508C640 503.6 643.6 500 648 500H704C708.4 500 712 503.6 712 508V556H840V420H184Z"  horiz-adv-x="1024" vert-adv-y="1024"  />

      
      <glyph glyph-name="kaifajihuai-1" unicode="&#xE016;" d="M876.6 572.5C876.1 573.4 875.4 574.3 874.6 575 869.6 580 861.5 580 856.5 575L684.2 402.7 616.3 470.6 788.7 643C789.5 643.8 790.1 644.6 790.7 645.5 794.3 651.6 792.3 659.4 786.2 663 688 721 559.4 707.7 474.9 623.3 407.9 556.3 385.7 461.3 408.4 375.9L115.4 82.9C112.4 79.9 112.6 75 115.7 71.9L285.4-97.8C288.5-100.9 293.5-101.1 296.4-98.1L589.3 194.8C674.8 172 769.8 194.1 836.9 261.2 921.3 345.7 934.6 474.3 876.6 572.5ZM786 312.2C727.9 254.1 640.7 242.9 571.4 278.6L562.6 269.8 562.5 269.9 288.5-4.2 209.3 75 439.4 305.1S439.4 305 439.5 305L492.3 357.8C456.6 427.1 467.8 514.3 525.9 572.4 565.1 611.6 618 629.7 669.9 625.9L537 493.1C524.5 480.6 524.5 460.3 537 447.8L661.5 323.3C674 310.8 694.3 310.8 706.8 323.3L839.6 456.1C843.3 404.3 825.2 351.3 786 312.2Z"  horiz-adv-x="1024" vert-adv-y="1024"  />

      
      <glyph glyph-name="xuefenzhaxun-1" unicode="&#xE017;" d="M688 500V548C688 552.4 684.4 556 680 556H296C291.6 556 288 552.4 288 548V500C288 495.6 291.6 492 296 492H680C684.4 492 688 495.6 688 500ZM296 412C291.6 412 288 408.4 288 404V356C288 351.6 291.6 348 296 348H480C484.4 348 488 351.6 488 356V404C488 408.4 484.4 412 480 412H296ZM440-40H208V664H768V320C768 315.6 771.6 312 776 312H832C836.4 312 840 315.6 840 320V704C840 721.7 825.7 736 808 736H168C150.3 736 136 721.7 136 704V-80C136-97.7 150.3-112 168-112H440C444.4-112 448-108.4 448-104V-48C448-43.6 444.4-40 440-40ZM885.7-91.5L792.4 1.8C814.7 31.3 828 68.1 828 108 828 205.2 749.2 284 652 284S476 205.2 476 108 554.8-68 652-68C687.8-68 721-57.3 748.8-39L843.5-133.7C845.1-135.3 847.1-136 849.1-136S853.2-135.2 854.7-133.7L885.7-102.7C888.8-99.6 888.8-94.6 885.7-91.5ZM652-4C590.1-4 540 46.1 540 108S590.1 220 652 220 764 169.9 764 108 713.9-4 652-4Z"  horiz-adv-x="1024" vert-adv-y="1024"  />

      
      <glyph glyph-name="yigonghuodong-1" unicode="&#xE018;" d="M923 528.4C909.6 559.5 890.4 587.3 866.1 611.2 841.8 635 813.6 653.6 782.1 666.7 749.6 680.2 715.2 687 679.7 687 630.4 687 582.3 673.5 540.5 648 530.5 641.9 521 635.2 512 627.9 503 635.2 493.5 641.9 483.5 648 441.7 673.5 393.6 687 344.3 687 308.8 687 274.4 680.2 241.9 666.7 210.5 653.7 182.2 635 157.9 611.2 133.5 587.3 114.4 559.5 101 528.4 87.1 496.1 80 461.8 80 426.5 80 393.2 86.8 358.5 100.3 323.2 111.6 293.7 127.8 263.1 148.5 232.2 181.3 183.3 226.4 132.3 282.4 80.6 375.2-5.1 467.1-64.3 471-66.7L494.7-81.9C505.2-88.6 518.7-88.6 529.2-81.9L552.9-66.7C556.8-64.2 648.6-5.1 741.5 80.6 797.5 132.3 842.6 183.3 875.4 232.2 896.1 263.1 912.4 293.7 923.6 323.2 937.1 358.5 943.9 393.2 943.9 426.5 944 461.8 936.9 496.1 923 528.4ZM512-2.8S156 225.3 156 426.5C156 528.4 240.3 611 344.3 611 417.4 611 480.8 570.2 512 510.6 543.2 570.2 606.6 611 679.7 611 783.7 611 868 528.4 868 426.5 868 225.3 512-2.8 512-2.8Z"  horiz-adv-x="1024" vert-adv-y="1024"  />

      
      <glyph glyph-name="bianjifankui" unicode="&#xE01B;" d="M257.7 60C259.7 60 261.7 60.2 263.7 60.5L431.9 90C433.9 90.4 435.8 91.3 437.2 92.8L861.1 516.7C865 520.6 865 526.9 861.1 530.8L694.9 697.1C693 699 690.5 700 687.8 700S682.6 699 680.7 697.1L256.8 273.2C255.3 271.7 254.4 269.9 254 267.9L224.5 99.7C222.6 88.6 226 77.8 233.9 69.9 240.5 63.5 248.8 60 257.7 60ZM325.1 234.4L687.8 597 761.1 523.7 398.4 161.1 309.5 145.4 325.1 234.4ZM880-24H144C126.3-24 112-38.3 112-56V-92C112-96.4 115.6-100 120-100H904C908.4-100 912-96.4 912-92V-56C912-38.3 897.7-24 880-24Z"  horiz-adv-x="1024" vert-adv-y="1024"  />

      
      <glyph glyph-name="kechengbiao-1" unicode="&#xE01C;" d="M832 748H192C174.3 748 160 733.7 160 716V-116C160-133.7 174.3-148 192-148H832C849.7-148 864-133.7 864-116V716C864 733.7 849.7 748 832 748ZM232 676H792V468H232V676ZM792 196H232V404H792V196ZM792-76H232V132H792V-76ZM344 572M304 572A40 40 0 1 1 384 572 40 40 0 1 1 304 572ZM344 300M304 300A40 40 0 1 1 384 300 40 40 0 1 1 304 300ZM344 28M304 28A40 40 0 1 1 384 28 40 40 0 1 1 304 28Z"  horiz-adv-x="1024" vert-adv-y="1024"  />

      
      <glyph glyph-name="shoujichongzhi" unicode="&#xE01D;" d="M744 750H280C244.7 750 216 721.3 216 686V-82C216-117.3 244.7-146 280-146H744C779.3-146 808-117.3 808-82V686C808 721.3 779.3 750 744 750ZM736-74H288V678H736V-74ZM512 28M472 28A40 40 0 1 1 552 28 40 40 0 1 1 472 28Z"  horiz-adv-x="1024" vert-adv-y="1024"  />

      
      <glyph glyph-name="shoujichongzhi-1" unicode="&#xE01E;" d="M744 750H280C244.7 750 216 721.3 216 686V-82C216-117.3 244.7-146 280-146H744C779.3-146 808-117.3 808-82V686C808 721.3 779.3 750 744 750ZM736-74H288V678H736V-74ZM512 28M472 28A40 40 0 1 1 552 28 40 40 0 1 1 472 28Z"  horiz-adv-x="1024" vert-adv-y="1024"  />

      
      <glyph glyph-name="share" unicode="&#xE01F;" d="M322.26 148.72L367.51 103.47 783.11 519.07 903.01 399.16 914.32 695.53H614.7L737.86 564.32 322.26 148.72ZM905.27-100.2H109.49V700.16H451.27V636.16H173.49V-36.2H841.27V299.98H905.27V-100.2Z"  horiz-adv-x="1024" vert-adv-y="1024"  />

      
      <glyph glyph-name="refresh" unicode="&#xE020;" d="M721.0667 86.6667C661.3333 31.2 588.8 1.3333 512 1.3333 354.1333 1.3333 221.8667 125.0667 213.3333 282.9333L226.1333 270.1333C234.6667 261.6 243.2 257.3333 256 257.3333S277.3333 261.6 285.8667 270.1333C302.9333 287.2 302.9333 312.8 285.8667 329.8667L200.5333 415.2C183.4667 432.2667 157.8667 432.2667 140.8 415.2L55.4667 329.8667C38.4 312.8 38.4 287.2 55.4667 270.1333S98.1333 253.0667 115.2 270.1333L128 282.9333C136.5333 78.1333 307.2-84 512-84 610.1333-84 704-45.6 780.8 26.9333 797.8667 44 797.8667 69.6 780.8 86.6667 768 103.7333 738.1333 103.7333 721.0667 86.6667ZM968.5333 329.8667C951.4667 346.9333 925.8667 346.9333 908.8 329.8667L896 317.0667C887.4667 521.8667 716.8 684 512 684 413.8667 684 320 645.6 243.2 573.0667 226.1333 556 226.1333 530.4 243.2 513.3333 260.2667 496.2667 285.8667 496.2667 302.9333 513.3333 362.6667 568.8 435.2 598.6667 512 598.6667 669.8667 598.6667 802.1333 474.9333 810.6667 317.0667L797.8667 329.8667C780.8 346.9333 755.2 346.9333 738.1333 329.8667S721.0667 287.2 738.1333 270.1333L823.4667 184.8C832 176.2667 844.8 172 853.3333 172S874.6667 176.2667 883.2 184.8L968.5333 270.1333C985.6 287.2 985.6 312.8 968.5333 329.8667Z"  horiz-adv-x="1024" vert-adv-y="1024"  />

      
      <glyph glyph-name="zan" unicode="&#xE021;" d="M832 447.2H684.8S704 511.2 716.8 626.4C723.2 684 678.4 741.6 614.4 748H601.6C550.4 748 518.4 716 499.2 671.2L460.8 575.2C428.8 511.2 403.2 472.8 384 460 358.4 447.2 262.4 447.2 256 447.2H128C89.6 447.2 64 421.6 64 389.6V-90.4C64-122.4 89.6-148 128-148H774.4C870.4-148 896-84 908.8 5.6L960 312.8C966.4 383.2 953.6 447.2 832 447.2ZM256-90.4H128V389.6H256V-90.4ZM896 319.2L844.8 12C832-45.6 832-90.4 768-90.4H320V389.6C364.8 389.6 390.4 396 409.6 408.8 441.6 421.6 473.6 472.8 518.4 556 544 620 556.8 652 563.2 658.4 569.6 677.6 582.4 690.4 608 690.4H614.4C646.4 690.4 659.2 658.4 659.2 639.2 646.4 536.8 627.2 472.8 627.2 472.8L601.6 389.6H844.8C864 389.6 876.8 389.6 889.6 376.8 902.4 364 896 338.4 896 319.2Z"  horiz-adv-x="1024" vert-adv-y="1024"  />

      
      <glyph glyph-name="jiantou" unicode="&#xE022;" d="M857.7056 316.991L397.9433 784.4864C390.8109 791.7375 379.1493 791.8368 371.8951 784.7033 364.6419 777.5709 364.5446 765.9082 371.6781 758.655L818.6306 304.1843 365.8565-148.5919C358.6637-155.7847 358.6637-167.4473 365.8565-174.6401 369.4534-178.237 374.1678-180.035 378.8812-180.035S388.3089-178.236 391.9058-174.6401L857.5961 291.0502C864.748 298.2021 864.7961 309.7808 857.7056 316.991Z"  horiz-adv-x="1024" vert-adv-y="1024"  />

      
      <glyph glyph-name="jiaxiao" unicode="&#xE023;" d="M916.1154 344.7717L557.9715 344.7717 557.9715 702.9145C557.9715 727.6294 537.9147 747.6862 513.2008 747.6862 488.4849 747.6862 468.4281 727.6294 468.4281 702.9145L468.4281 344.7717 110.2853 344.7717C85.5694 344.7717 65.5136 324.7149 65.5136 300S85.5704 255.2273 110.2853 255.2273L468.4281 255.2273 468.4281-102.9166C468.4281-127.6785 488.4849-147.6873 513.2008-147.6873 537.9147-147.6873 557.9715-127.6785 557.9715-102.9166L557.9715 255.2273 916.1154 255.2273C940.8784 255.2273 960.8871 275.2851 960.8871 300S940.8784 344.7717 916.1154 344.7717L916.1154 344.7717ZM916.1154 344.7717"  horiz-adv-x="1024" vert-adv-y="1024"  />

      
      <glyph glyph-name="guanbi" unicode="&#xE024;" d="M512 355.6898L94.2474 773.4425A39.5422 39.5422 0 0 1 38.5575 773.4425 39.2665 39.2665 0 0 1 38.5575 717.7526L456.3102 300 38.5575-117.7526A39.5422 39.5422 0 0 1 38.5575-173.4425 39.2665 39.2665 0 0 1 94.2474-173.4425L512 244.3102 929.7526-173.4425C944.9157-188.6055 970.0431-188.8025 985.4425-173.4425A39.2665 39.2665 0 0 1 985.4425-117.7526L567.6898 300 985.4425 717.7526A39.5422 39.5422 0 0 1 985.4425 773.4425 39.2665 39.2665 0 0 1 929.7526 773.4425L512 355.6898Z"  horiz-adv-x="1024" vert-adv-y="1024"  />

      
      <glyph glyph-name="jianxiao" unicode="&#xE025;" d="M913.5365 260.5524H116.9102C93.2723 260.5524 73.9322 279.8925 73.9322 303.5303S93.2723 346.5082 116.9102 346.5082H913.5365C937.1744 346.5082 956.5144 327.1682 956.5144 303.5303S937.1744 260.5524 913.5365 260.5524Z"  horiz-adv-x="1024" vert-adv-y="1024"  />

      
      <glyph glyph-name="chenggong" unicode="&#xE026;" d="M878.08 80.7253A32 32 0 0 0 823.2 113.664 360.7893 360.7893 0 0 1 874.6667 300C874.6667 500.2987 712.2987 662.6667 512 662.6667S149.3333 500.2987 149.3333 300 311.7013-62.6667 512-62.6667A360.7893 360.7893 0 0 1 698.3147-11.2213 32 32 0 0 0 731.2427-66.1013 424.7787 424.7787 0 0 0 512-126.6667C276.3627-126.6667 85.3333 64.3627 85.3333 300S276.3627 726.6667 512 726.6667 938.6667 535.6373 938.6667 300C938.6667 221.7067 917.5147 146.432 878.08 80.7253ZM374.5813 322.5493L458.9227 238.56 649.3547 429.28A32 32 0 0 0 694.6453 384.0533L481.632 170.72A32 32 0 0 0 436.4053 170.656L329.4187 277.2053A32 32 0 1 0 374.5813 322.5493Z"  horiz-adv-x="1024" vert-adv-y="1024"  />

      
      <glyph glyph-name="yibai" unicode="&#xE027;" d="M878.08 80.7253A32 32 0 0 0 823.2 113.664 360.7893 360.7893 0 0 1 874.6667 300C874.6667 500.2987 712.2987 662.6667 512 662.6667S149.3333 500.2987 149.3333 300 311.7013-62.6667 512-62.6667A360.7893 360.7893 0 0 1 698.3147-11.2213 32 32 0 0 0 731.2427-66.1013 424.7787 424.7787 0 0 0 512-126.6667C276.3627-126.6667 85.3333 64.3627 85.3333 300S276.3627 726.6667 512 726.6667 938.6667 535.6373 938.6667 300C938.6667 221.7067 917.5147 146.432 878.08 80.7253ZM555.232 300L641.7067 213.5253A30.5707 30.5707 0 1 0 598.4747 170.2933L512 256.768 425.5253 170.2933A30.5707 30.5707 0 1 0 382.2933 213.5253L468.768 300 382.2933 386.4747A30.5707 30.5707 0 1 0 425.5253 429.7067L512 343.232 598.4747 429.7067A30.5707 30.5707 0 1 0 641.7067 386.4747L555.232 300Z"  horiz-adv-x="1024" vert-adv-y="1024"  />

      
      <glyph glyph-name="weixin" unicode="&#xE028;" d="M337.3873 470.1734C319.6301 470.1734 301.8728 458.3353 301.8728 440.578S319.6301 410.9827 337.3873 410.9827 366.9827 422.8208 366.9827 440.578C366.9827 459.0751 355.1445 470.1734 337.3873 470.1734ZM577.8497 298.5202C566.0116 298.5202 554.9133 285.9422 554.9133 274.8439 554.9133 262.2659 566.7514 251.1676 577.8497 251.1676 595.6069 251.1676 607.4451 263.0058 607.4451 274.8439S595.6069 298.5202 577.8497 298.5202ZM501.6416 410.9827C519.3988 410.9827 531.237 423.5607 531.237 440.578 531.237 458.3353 519.3988 470.1734 501.6416 470.1734S466.1272 458.3353 466.1272 440.578 483.8844 410.9827 501.6416 410.9827ZM706.5896 298.5202C694.7514 298.5202 683.6532 285.9422 683.6532 274.8439 683.6532 262.2659 695.4913 251.1676 706.5896 251.1676 724.3468 251.1676 736.185 263.0058 736.185 274.8439S724.3468 298.5202 706.5896 298.5202ZM510.5202 809.0405C228.6243 809.0405 0 580.4162 0 298.5202S228.6243-212 510.5202-212 1021.0405 16.6243 1021.0405 298.5202 792.4162 809.0405 510.5202 809.0405ZM413.5954 167.5607C384 167.5607 360.3237 173.4798 332.2081 180.1387L250.8208 138.7052 273.7572 210.474C215.3064 251.9075 179.7919 305.9191 179.7919 370.289 179.7919 483.4913 285.5954 572.2775 413.5954 572.2775 528.2775 572.2775 629.6416 501.2486 649.6185 405.8035 642.2197 406.5434 634.8208 407.2832 627.422 407.2832 516.4393 405.8035 429.1329 322.1965 429.1329 218.6127 429.1329 201.5954 432.0925 185.3179 436.5318 169.0405 429.1329 168.3006 420.9942 167.5607 413.5954 167.5607ZM759.8613 84.6936L777.6185 25.5029 713.9884 61.0173C691.052 55.0983 667.3757 49.1792 643.6994 49.1792 531.9769 49.1792 443.9306 126.1272 443.9306 221.5723 443.1908 316.2775 531.237 393.2254 642.2197 393.2254 748.0231 393.2254 841.2486 315.5376 841.2486 220.8324 841.2486 167.5607 806.474 120.2081 759.8613 84.6936Z"  horiz-adv-x="1024" vert-adv-y="1024"  />

      
      <glyph glyph-name="gongpao" unicode="&#xE02A;" d="M865.7455 709.6C865.7455 709.6 865.7455 709.6 865.7455 709.6 865.7455 712.703 865.7455 712.703 865.7455 709.6 847.1273 734.4242 819.2 749.9394 788.1697 749.9394L214.1091 749.9394C158.2545 749.9394 114.8121 706.497 114.8121 650.6424L114.8121-47.5394C114.8121-103.3939 158.2545-146.8364 214.1091-146.8364L788.1697-146.8364C844.0242-146.8364 887.4667-103.3939 887.4667-47.5394L887.4667 650.6424C887.4667 672.3636 881.2606 694.0848 865.7455 709.6ZM788.1697 700.2909C791.2727 700.2909 797.4788 700.2909 800.5818 697.1879L508.897 511.0061 195.4909 697.1879C201.697 700.2909 207.903 700.2909 214.1091 700.2909L788.1697 700.2909ZM837.8182-50.6424C837.8182-78.5697 816.097-100.2909 788.1697-100.2909L214.1091-100.2909C186.1818-100.2909 164.4606-78.5697 164.4606-50.6424L164.4606 647.5394C164.4606 650.6424 164.4606 650.6424 164.4606 653.7455L496.4848 458.2545C505.7939 452.0485 515.103 455.1515 521.3091 458.2545L837.8182 659.9515C837.8182 656.8485 840.9212 650.6424 840.9212 647.5394L840.9212-50.6424ZM639.2242 250.3515C651.6364 250.3515 664.0485 262.7636 664.0485 275.1758 664.0485 287.5879 651.6364 300 639.2242 300L555.4424 300 626.8121 371.3697C636.1212 380.6788 636.1212 396.1939 626.8121 405.503 617.503 414.8121 601.9879 414.8121 592.6788 405.503L512 324.8242C512 324.8242 508.897 324.8242 508.897 324.8242 508.897 324.8242 508.897 324.8242 508.897 324.8242L431.3212 402.4C422.0121 411.7091 406.497 411.7091 397.1879 402.4 387.8788 393.0909 387.8788 377.5758 397.1879 368.2667L465.4545 300 390.9818 300C378.5697 300 366.1576 287.5879 366.1576 275.1758 366.1576 262.7636 378.5697 250.3515 390.9818 250.3515L484.0727 250.3515 484.0727 175.8788 390.9818 175.8788C378.5697 175.8788 366.1576 163.4667 366.1576 151.0545 366.1576 138.6424 378.5697 126.2303 390.9818 126.2303L484.0727 126.2303 484.0727 36.2424C484.0727 23.8303 496.4848 11.4182 508.897 11.4182 521.3091 11.4182 533.7212 23.8303 533.7212 36.2424L533.7212 126.2303 642.3273 126.2303C654.7394 126.2303 667.1515 138.6424 667.1515 151.0545 667.1515 163.4667 654.7394 175.8788 642.3273 175.8788L533.7212 175.8788 533.7212 250.3515 639.2242 250.3515Z"  horiz-adv-x="1024" vert-adv-y="1024"  />

      
      <glyph glyph-name="yangongrukou" unicode="&#xE02B;" d="M1096.6109-138.1789H1058.1178V455.0429C1058.1178 488.4393 1029.8647 516.6691 993.8851 516.6691H847.5229V560.3287C847.5229 568.032 847.5229 588.5818 734.5338 693.8676 618.9847 801.76 593.2916 801.76 583.0284 801.76 572.7418 801.76 547.072 801.76 426.3796 696.4509 308.2473 591.1651 308.2473 573.1985 308.2473 562.9353V519.2756H166.9818C131.0487 519.2756 102.7956 491.0225 102.7956 457.6262V-138.1556H46.3127C30.9062-138.1556 18.0596-150.9789 18.0596-166.3855S30.9062-194.6385 46.3127-194.6385L1099.1942-192.0785C1114.6007-192.0785 1127.4473-179.232 1127.4473-163.8255 1127.4473-148.4189 1112.0407-138.1556 1096.6342-138.1556ZM991.3484 460.1629C996.4684 460.1629 999.0284 457.6029 999.0284 455.0429V-138.1789H844.9629V460.1629H991.3484ZM462.336 652.8145C526.5222 709.2742 565.0385 737.5273 580.4218 742.6473 616.3782 727.2407 767.9069 588.5585 791.0167 552.6022V-138.2022H742.2138V59.5927C742.2138 121.2189 690.8509 170.0218 626.6647 170.0218H531.6422C467.4327 170.0218 416.0698 121.2189 416.0698 59.5927V-138.1556H359.5869V552.6255C369.8502 565.472 408.3665 606.5484 462.3127 652.7913ZM685.7542-138.1556H470.016V62.1527C470.016 92.9658 498.2691 116.0756 531.6655 116.0756H626.688C660.0611 116.0756 688.3142 92.9658 688.3142 62.1527V-138.1556H685.7542ZM156.7185 455.0429C156.7185 457.6029 159.2785 460.1629 164.4451 460.1629H303.104V-138.1789H154.1585V455.0429H156.7185ZM444.3695 352.3171H693.4575C708.864 352.3171 721.6873 365.1636 721.6873 380.5702 721.6873 395.9767 708.864 408.8233 693.4575 408.8233H444.3462C428.9396 408.8233 416.0931 395.9767 416.0931 380.5702 418.6531 365.1636 428.9396 352.3171 444.3462 352.3171ZM444.3695 247.0313H693.4575C708.864 247.0313 721.6873 259.8778 721.6873 275.2844 721.6873 290.6909 708.864 303.5375 693.4575 303.5375H444.3462C428.9396 303.5375 416.0931 290.6909 416.0931 275.2844 416.0931 259.8778 428.9396 247.0313 444.3462 247.0313ZM444.3695 460.1862H693.4575C708.864 460.1862 721.6873 473.0095 721.6873 488.4393 721.6873 503.8458 708.864 516.6691 693.4575 516.6691H444.3462C428.9396 516.6691 416.0931 503.8458 416.0931 488.4393 416.0931 473.0095 428.9396 460.1862 444.3462 460.1862Z"  horiz-adv-x="1163" vert-adv-y="1024"  />

      
      <glyph glyph-name="xiaosuo" unicode="&#xE02C;" d="M809.2464 40.0731L777.7378 8.5419 924.966-138.6678 956.4766-107.1572ZM454.8785 741.7142C239.5156 741.7142 64.9324 567.1525 64.9324 351.768 64.9324 136.4266 239.5156-38.1771 454.8775-38.1771 670.2405-38.1771 844.8247 136.4266 844.8247 351.768 844.8257 567.1525 670.2415 741.7142 454.8785 741.7142ZM454.8785 6.3889C264.1281 6.3889 109.4973 161.0156 109.4973 351.768 109.4973 542.5195 264.1271 697.1482 454.8785 697.1482 645.631 697.1482 800.2608 542.5195 800.2608 351.768 800.2597 161.0166 645.631 6.3889 454.8785 6.3889Z"  horiz-adv-x="1024" vert-adv-y="1024"  />

      
      <glyph glyph-name="zhaoshangxiaochengxu-mimabukexian" unicode="&#xE02D;" d="M950.1 472.3C953.8 485 946.4 498.3 933.7 502 921 505.7 907.7 498.3 904 485.6 871.9 368.8 710 262.6 512.3 263.2 315 262.5 152.5 369.2 120 485.7 116.3 498.4 103 505.7 90.2 502 77.5 498.3 70.2 485 73.9 472.2 91.3 414.2 130.3 362 184.2 319.9L111.1 225C103 214.5 105 199.4 115.5 191.3 126 183.2 141.1 185.2 149.2 195.7L223.8 292.7C268.6 265.2 320.8 243.9 377.7 230.7L341 128C336.5 115.5 343.1 101.8 355.5 97.3 368 92.8 381.7 99.4 386.2 111.8L425.4 221.5C453.5 217.4 482.6 215.2 512.2 215.1 544.6 215.2 576.3 217.8 606.9 222.7L646.3 112.3C650.7 99.8 664.5 93.3 677 97.7S696 115.9 691.6 128.4L654.6 232.3C711.5 246.3 763.4 268.3 807.6 296.6L885.4 195.3C893.5 184.8 908.5 182.8 919.1 190.9 929.6 199 931.6 214 923.5 224.6L846.6 324.7C897 365.9 933.5 416.4 950.1 472.3Z"  horiz-adv-x="1024" vert-adv-y="1024"  />

      
      <glyph glyph-name="zhaoshangxiaochengxu-mimakexian" unicode="&#xE02E;" d="M938.1 234.1C922 289.8 886.5 340.2 837.3 381.3L912.2 481.8C920.1 492.4 917.9 507.5 907.3 515.4 896.7 523.3 881.6 521.1 873.7 510.5L798.7 409.8C755.9 437.8 705.8 459.7 650.9 473.6L687 578C691.3 590.5 684.7 604.2 672.2 608.5 659.7 612.8 646 606.2 641.7 593.7L603.6 483.5C574.1 488.3 543.5 490.9 512.2 491 483.6 490.9 455.6 488.7 428.4 484.7L390.5 594.1C386.2 606.6 372.5 613.3 360 608.9 347.5 604.6 340.8 590.9 345.2 578.4L380.9 475.4C326 462.1 275.6 440.9 232.4 413.6L160.3 510.2C152.4 520.8 137.3 523 126.7 515.1 116.1 507.2 113.9 492.1 121.8 481.5L193.3 385.7C141.1 343.6 103.5 291.3 86.6 233.5L88 233.1 87 232.8C129.9 86.2 306.3-14.6 513-15.1 720.1-14.7 896.9 86.6 939.3 233.7L938.1 234.1ZM513.1 33C327.7 32.6 175.9 123.1 137.1 233.7 176.6 345.3 328.3 443.5 512.2 443 697.5 443.5 850.3 344.6 888.6 232.1 848.8 122.2 697.6 32.6 513.1 33ZM515 375.1C437.6 375.1 374.9 312.4 374.9 235 374.9 157.6 437.6 94.9 515 94.9 592.4 94.9 655.1 157.6 655.1 235 655.1 312.4 592.4 375.1 515 375.1ZM515 142.9C464.2 143 423 184.1 422.9 235 423 285.8 464.1 327 515 327.1 565.8 327 607 285.9 607.1 235 607 184.2 565.8 143 515 142.9Z"  horiz-adv-x="1024" vert-adv-y="1024"  />

      
      <glyph glyph-name="tianjial" unicode="&#xE02F;" d="M512 748C264.6 748 64 547.4 64 300S264.6-148 512-148 960 52.6 960 300 759.4 748 512 748ZM704 276C704 271.6 700.4 268 696 268H544V116C544 111.6 540.4 108 536 108H488C483.6 108 480 111.6 480 116V268H328C323.6 268 320 271.6 320 276V324C320 328.4 323.6 332 328 332H480V484C480 488.4 483.6 492 488 492H536C540.4 492 544 488.4 544 484V332H696C700.4 332 704 328.4 704 324V276Z"  horiz-adv-x="1024" vert-adv-y="1024"  />

      
      <glyph glyph-name="shanshu" unicode="&#xE030;" d="M360 628H352C356.4 628 360 631.6 360 636V628H664V636C664 631.6 667.6 628 672 628H664V556H736V636C736 671.3 707.3 700 672 700H352C316.7 700 288 671.3 288 636V556H360V628ZM864 556H160C142.3 556 128 541.7 128 524V492C128 487.6 131.6 484 136 484H196.4L221.1-39C222.7-73.1 250.9-100 285-100H739C773.2-100 801.3-73.2 802.9-39L827.6 484H888C892.4 484 896 487.6 896 492V524C896 541.7 881.7 556 864 556ZM731.3-28H292.7L268.5 484H755.5L731.3-28Z"  horiz-adv-x="1024" vert-adv-y="1024"  />

      
      <glyph glyph-name="bianji" unicode="&#xE031;" d="M904 300H848C843.6 300 840 296.4 840 292V-28H184V628H504C508.4 628 512 631.6 512 636V692C512 696.4 508.4 700 504 700H144C126.3 700 112 685.7 112 668V-68C112-85.7 126.3-100 144-100H880C897.7-100 912-85.7 912-68V292C912 296.4 908.4 300 904 300ZM355.9 277.1L354 158.2C353.9 149.3 361.1 142 370 142H370.4L488.4 144.9C490.4 145 492.4 145.8 493.8 147.2L909.7 562.2C912.8 565.3 912.8 570.4 909.7 573.5L785.4 697.7C783.8 699.3 781.8 700 779.7 700S775.6 699.2 774 697.7L358.2 282.7C356.8 281.2 355.9 279.2 355.9 277.1ZM419.4 253.5L779.7 613 824.9 567.9 464.4 208.2 418.7 207.1 419.4 253.5Z"  horiz-adv-x="1024" vert-adv-y="1024"  />

      
      <glyph glyph-name="kechengguanli" unicode="&#xE032;" d="M873.536-125.984H150.464A85.312 85.312 0 0 0 65.216-40.8V573.344C65.216 620.32 103.424 658.528 150.464 658.528H873.6C920.576 658.528 958.848 620.32 958.848 573.344V-40.8A85.312 85.312 0 0 0 873.536-125.984ZM150.464 610.528A37.248 37.248 0 0 1 113.216 573.344V-40.8C113.216-61.28 129.92-77.984 150.464-77.984H873.6A37.248 37.248 0 0 1 910.848-40.8V573.344A37.248 37.248 0 0 1 873.6 610.528H150.464ZM110.016 487.264H914.048V459.232H110.016ZM398.016 575.264A24 24 0 0 0 350.016 575.264V695.264A24 24 0 0 0 398.016 695.264V575.264ZM674.048 575.264A24 24 0 0 0 626.048 575.264V695.264A24 24 0 0 0 674.048 695.264V575.264ZM298.688 283.616M256.064 283.616A42.624 42.624 0 1 1 341.312 283.616 42.624 42.624 0 1 1 256.064 283.616ZM511.616 283.616M468.992 283.616A42.624 42.624 0 1 1 554.24 283.616 42.624 42.624 0 1 1 468.992 283.616ZM725.632 283.616M683.008 283.616A42.624 42.624 0 1 1 768.256 283.616 42.624 42.624 0 1 1 683.008 283.616ZM298.688 106.656M256.064 106.656A42.624 42.624 0 1 1 341.312 106.656 42.624 42.624 0 1 1 256.064 106.656ZM511.936 106.656M469.312 106.656A42.624 42.624 0 1 1 554.56 106.656 42.624 42.624 0 1 1 469.312 106.656ZM725.632 106.656M683.008 106.656A42.624 42.624 0 1 1 768.256 106.656 42.624 42.624 0 1 1 683.008 106.656Z"  horiz-adv-x="1024" vert-adv-y="1024"  />

      
      <glyph glyph-name="jiaoshi" unicode="&#xE033;" d="M200.204 357.4419A121.2739 121.2739 0 0 1 78.8958 236.225V-90.6805A121.2853 121.2853 0 0 1 200.204-212H465.1454A11.5499 11.5499 0 0 1 476.1258-196.8621L298.0364 349.4686A11.5499 11.5499 0 0 1 287.056 357.4419ZM200.204 357.4419M823.8302 357.4419H737.0579A11.5499 11.5499 0 0 1 726.0775 349.4686L548.0564-196.8621A11.5499 11.5499 0 0 1 559.0368-212H823.8302A121.2853 121.2853 0 0 1 945.1041-90.7033V236.2022A121.2739 121.2739 0 0 1 823.8302 357.4419ZM853.7756-23.4086H700.3009A16.9945 16.9945 0 0 0 700.3009 10.5805H853.7643A16.9945 16.9945 0 0 0 853.7643-23.4086ZM853.7756-23.4086M736.2036 587.8818A224.0612 224.0612 0 0 1 512.0512 812C388.3284 812 287.8647 711.7642 287.8647 587.8818S388.317 363.775 512.0512 363.775 736.2036 464.1931 736.2036 587.8818ZM736.2036 587.8818M504.5563 321.6646L408.3755 240.9406A11.5499 11.5499 0 0 1 404.8217 228.5136L501.0139-66.4986A11.5499 11.5499 0 0 1 522.9861-66.4986L619.2352 228.5136A11.5499 11.5499 0 0 1 615.6814 240.952L519.4322 321.676A11.5499 11.5499 0 0 1 504.5563 321.6646ZM511.9829 327.8952"  horiz-adv-x="1024" vert-adv-y="1024"  />

      
      <glyph glyph-name="dedian" unicode="&#xE034;" d="M808.4421 61.5267C789.3134 74.3415 763.4361 85.4239 731.5283 94.4649 701.7143 102.9122 667.1951 109.4532 629.7943 113.876 638.6828 127.1145 647.784 141.1123 656.9058 155.7455 692.4452 212.7601 720.8266 267.5029 741.261 318.4543 767.431 383.7085 780.7013 443.2956 780.7013 495.5589 780.7013 529.9236 773.4778 563.2547 759.2323 594.6272 745.5476 624.7616 726.0025 651.783 701.1402 674.9404 676.4315 697.9546 647.694 716.0098 615.7239 728.6036 582.7447 741.5945 547.7477 748.1825 511.7058 748.1825 475.6629 748.1825 440.6658 741.5945 407.6867 728.6036 375.7186 716.0098 346.9801 697.9546 322.2714 674.9404 297.4091 651.783 277.864 624.7616 264.1803 594.6272 249.9338 563.2547 242.7103 529.9236 242.7103 495.5589 242.7103 443.2946 255.9795 383.7085 282.1506 318.4543 302.585 267.5018 330.9664 212.7591 366.5058 155.7455 375.6296 141.1092 384.7329 127.1083 393.6234 113.8678 356.2492 109.4461 321.7546 102.9071 291.959 94.4649 260.0523 85.4229 234.1749 74.3415 215.0463 61.5267 177.3876 36.2981 169.4825 7.0254 169.4825-13.0877S177.3876-62.4745 215.0452-87.7031C234.1739-100.518 260.0513-111.6014 291.959-120.6413 351.3506-137.4706 429.4043-146.7397 511.7447-146.7397 594.084-146.7397 672.1387-137.4706 731.5304-120.6413 763.4371-111.6004 789.3144-100.518 808.4431-87.7031 846.1018-62.4745 854.0058-33.2008 854.0058-13.0877S846.1008 36.2981 808.4421 61.5267ZM511.7058 613.759C577.883 613.759 631.5452 560.0978 631.5452 493.9206 631.5452 427.7434 577.884 374.0823 511.7058 374.0823 445.5296 374.0823 391.8674 427.7434 391.8674 493.9206 391.8664 560.0978 445.5286 613.759 511.7058 613.759ZM511.7437-95.5754C350.9751-95.5754 220.6468-58.6453 220.6468-13.0887 220.6468 24.132 307.6555 55.5895 427.1787 65.8563 461.3182 18.8835 486.8384-10.8436 488.4573-12.7203L511.7058-39.6804 534.9553-12.7203C536.5732-10.8436 562.0954 18.8865 596.2381 65.8624 715.7971 55.6017 802.8405 24.1392 802.8405-13.0887 802.8405-58.6453 672.5112-95.5754 511.7437-95.5754Z"  horiz-adv-x="1024" vert-adv-y="1024"  />

      
      <glyph glyph-name="jiazai" unicode="&#xE035;" d="M512 750.56A40.96 40.96 0 0 0 552.96 709.6V586.72A40.96 40.96 0 1 0 471.04 586.72V709.6A40.96 40.96 0 0 0 512 750.56ZM737.28 690.2054A40.96 40.96 0 0 0 752.2714 634.2541L690.8314 527.8195A40.96 40.96 0 1 0 619.8886 568.7795L681.3286 675.2141A40.96 40.96 0 0 0 737.28 690.2054ZM902.2054 525.28A40.96 40.96 0 0 0 887.2141 469.3286L780.7795 407.8886A40.96 40.96 0 0 0 739.8195 478.8314L846.2541 540.2714A40.96 40.96 0 0 0 902.2054 525.28ZM962.56 300A40.96 40.96 0 0 0 921.6 259.04H798.72A40.96 40.96 0 1 0 798.72 340.96H921.6A40.96 40.96 0 0 0 962.56 300ZM902.2054 74.72A40.96 40.96 0 0 0 846.2541 59.7286L739.8195 121.1686A40.96 40.96 0 1 0 780.7795 192.1114L887.2141 130.6714A40.96 40.96 0 0 0 902.2054 74.72ZM737.28-90.2054A40.96 40.96 0 0 0 681.3286-75.2141L619.8886 31.2205A40.96 40.96 0 0 0 690.8314 72.1805L752.2714-34.2541A40.96 40.96 0 0 0 737.28-90.2054ZM512-150.56A40.96 40.96 0 0 0 471.04-109.6V13.28A40.96 40.96 0 1 0 552.96 13.28V-109.6A40.96 40.96 0 0 0 512-150.56ZM286.72-90.2054A40.96 40.96 0 0 0 271.7286-34.2541L333.1686 72.1805A40.96 40.96 0 1 0 404.1114 31.2205L342.6714-75.2141A40.96 40.96 0 0 0 286.72-90.2054ZM121.7946 74.72A40.96 40.96 0 0 0 136.7859 130.6714L243.2205 192.1114A40.96 40.96 0 0 0 284.1805 121.1686L177.7459 59.7286A40.96 40.96 0 0 0 121.7946 74.72ZM61.44 300A40.96 40.96 0 0 0 102.4 340.96H225.28A40.96 40.96 0 1 0 225.28 259.04H102.4A40.96 40.96 0 0 0 61.44 300ZM121.7946 525.28A40.96 40.96 0 0 0 177.7459 540.2714L284.1805 478.8314A40.96 40.96 0 1 0 243.2205 407.8886L136.7859 469.3286A40.96 40.96 0 0 0 121.7946 525.28ZM286.72 690.2054A40.96 40.96 0 0 0 342.6714 675.2141L404.1114 568.7795A40.96 40.96 0 0 0 333.1686 527.8195L271.7286 634.2541A40.96 40.96 0 0 0 286.72 690.2054Z"  horiz-adv-x="1024" vert-adv-y="1024"  />

      
      <glyph glyph-name="licai" unicode="&#xE036;" d="M512 775.8588C580.2667 775.8588 644.5176 748.7529 692.7059 700.5647L913.5686 480.7059C961.7569 432.5176 988.8627 368.2667 988.8627 300S961.7569 167.4824 913.5686 119.2941L693.7098-101.5686C645.5216-149.7569 581.2706-176.8627 513.0039-176.8627 444.7373-176.8627 380.4863-149.7569 332.298-101.5686L111.4353 119.2941C12.0471 218.6824 12.0471 381.3176 111.4353 481.7098L331.2941 701.5686C379.4824 749.7569 443.7333 775.8588 512 775.8588M512 805.9765C438.7137 805.9765 365.4275 777.8667 309.2078 722.651L90.3529 502.7922A285.9972 285.9972 0 0 1 90.3529 97.2078L310.2118-122.651C366.4314-178.8706 439.7176-205.9765 513.0039-205.9765S659.5765-177.8667 715.7961-122.651L935.6549 97.2078C1047.0902 208.6431 1047.0902 390.3529 935.6549 501.7882L714.7922 722.651C658.5725 777.8667 585.2863 805.9765 512 805.9765ZM525.051 345.1765C477.8667 345.1765 439.7176 307.0275 439.7176 259.8431S477.8667 174.5098 525.051 174.5098 610.3843 212.6588 610.3843 259.8431 572.2353 345.1765 525.051 345.1765ZM525.051 219.6863L484.8941 259.8431 525.051 300 565.2078 259.8431 525.051 219.6863ZM452.7686 466.651C467.8275 466.651 482.8863 465.6471 497.9451 463.6392 528.0627 459.6235 552.1569 457.6157 572.2353 457.6157 580.2667 457.6157 588.298 457.6157 595.3255 458.6196L575.2471 418.4627 616.4078 388.3451C656.5647 359.2314 680.6588 314.0549 680.6588 263.8588 680.6588 178.5255 610.3843 109.2549 525.051 109.2549S369.4431 178.5255 369.4431 263.8588C369.4431 308.0314 388.5176 350.1961 422.651 380.3137L442.7294 398.3843V425.4902C442.7294 439.5451 439.7176 453.6 434.698 467.6549 440.7216 466.651 446.7451 466.651 452.7686 466.651M680.6588 540.9412H678.651C630.4627 532.9098 622.4314 516.8471 572.2353 516.8471 556.1725 516.8471 535.0902 518.8549 505.9765 522.8706 486.902 525.8824 468.8314 526.8863 451.7647 526.8863 386.5098 526.8863 342.3373 509.8196 342.3373 509.8196S383.498 454.6039 382.4941 425.4902C337.3176 386.3373 308.2039 328.1098 308.2039 263.8588 308.2039 145.3961 404.5804 49.0196 524.0471 49.0196S739.8902 145.3961 739.8902 263.8588C739.8902 335.1373 704.7529 398.3843 651.5451 436.5333 671.6235 477.6941 699.7333 540.9412 680.6588 540.9412Z"  horiz-adv-x="1024" vert-adv-y="1024"  />

      

  </font>
</defs>
</svg>
